<?xml version="1.0" encoding="UTF-8"?>
<svg version="1.1" xmlns="http://www.w3.org/2000/svg" width="80" height="80">
<path d="M0 0 C5.94 0 11.88 0 18 0 C18 1.98 18 3.96 18 6 C19.98 6 21.96 6 24 6 C24 7.98 24 9.96 24 12 C25.98 12 27.96 12 30 12 C30 13.98 30 15.96 30 18 C31.98 18 33.96 18 36 18 C36 21.96 36 25.92 36 30 C37.98 30 39.96 30 42 30 C42 37.92 42 45.84 42 54 C40.02 54 38.04 54 36 54 C36 57.96 36 61.92 36 66 C34.02 66 32.04 66 30 66 C30 67.98 30 69.96 30 72 C28.02 72 26.04 72 24 72 C24 73.98 24 75.96 24 78 C14.1 78 4.2 78 -6 78 C-6 76.02 -6 74.04 -6 72 C-7.98 72 -9.96 72 -12 72 C-12 70.02 -12 68.04 -12 66 C-13.98 66 -15.96 66 -18 66 C-18 62.04 -18 58.08 -18 54 C-19.98 54 -21.96 54 -24 54 C-24 46.08 -24 38.16 -24 30 C-22.02 30 -20.04 30 -18 30 C-18 26.04 -18 22.08 -18 18 C-16.02 18 -14.04 18 -12 18 C-12 16.02 -12 14.04 -12 12 C-10.02 12 -8.04 12 -6 12 C-6 10.02 -6 8.04 -6 6 C-4.02 6 -2.04 6 0 6 C0 4.02 0 2.04 0 0 Z " fill="#C2E8FF" transform="translate(31,1)"/>
<path d="M0 0 C9.9 0 19.8 0 30 0 C30 1.98 30 3.96 30 6 C31.98 6 33.96 6 36 6 C36 13.92 36 21.84 36 30 C32.04 30 28.08 30 24 30 C24 26.04 24 22.08 24 18 C22.02 18 20.04 18 18 18 C18 23.94 18 29.88 18 36 C10.08 36 2.16 36 -6 36 C-6 34.02 -6 32.04 -6 30 C-4.02 30 -2.04 30 0 30 C0 20.1 0 10.2 0 0 Z " fill="#C2E8FF" transform="translate(31,13)"/>
<path d="M0 0 C1.98 0 3.96 0 6 0 C6 3.96 6 7.92 6 12 C9.96 12 13.92 12 18 12 C18 8.04 18 4.08 18 0 C19.98 0 21.96 0 24 0 C24 7.92 24 15.84 24 24 C22.02 24 20.04 24 18 24 C18 27.96 18 31.92 18 36 C16.02 36 14.04 36 12 36 C12 37.98 12 39.96 12 42 C10.02 42 8.04 42 6 42 C6 43.98 6 45.96 6 48 C-3.9 48 -13.8 48 -24 48 C-24 46.02 -24 44.04 -24 42 C-25.98 42 -27.96 42 -30 42 C-30 40.02 -30 38.04 -30 36 C-28.02 36 -26.04 36 -24 36 C-24 32.04 -24 28.08 -24 24 C-22.02 24 -20.04 24 -18 24 C-18 29.94 -18 35.88 -18 42 C-12.06 42 -6.12 42 0 42 C0 36.06 0 30.12 0 24 C1.98 24 3.96 24 6 24 C6 25.98 6 27.96 6 30 C7.98 30 9.96 30 12 30 C12 26.04 12 22.08 12 18 C8.04 18 4.08 18 0 18 C0 12.06 0 6.12 0 0 Z " fill="#7496C4" transform="translate(49,31)"/>
<path d="M0 0 C5.94 0 11.88 0 18 0 C18 1.98 18 3.96 18 6 C19.98 6 21.96 6 24 6 C24 7.98 24 9.96 24 12 C16.08 12 8.16 12 0 12 C0 21.9 0 31.8 0 42 C-3.96 42 -7.92 42 -12 42 C-12 38.04 -12 34.08 -12 30 C-13.98 30 -15.96 30 -18 30 C-18 26.04 -18 22.08 -18 18 C-16.02 18 -14.04 18 -12 18 C-12 16.02 -12 14.04 -12 12 C-10.02 12 -8.04 12 -6 12 C-6 10.02 -6 8.04 -6 6 C-4.02 6 -2.04 6 0 6 C0 4.02 0 2.04 0 0 Z " fill="#F5FCFF" transform="translate(31,1)"/>
<path d="M0 0 C1.98 0 3.96 0 6 0 C6 1.98 6 3.96 6 6 C7.98 6 9.96 6 12 6 C12 13.92 12 21.84 12 30 C8.04 30 4.08 30 0 30 C0 26.04 0 22.08 0 18 C-1.98 18 -3.96 18 -6 18 C-6 14.04 -6 10.08 -6 6 C-4.02 6 -2.04 6 0 6 C0 4.02 0 2.04 0 0 Z " fill="#C2E8FF" transform="translate(55,13)"/>
<path d="M0 0 C7.92 0 15.84 0 24 0 C24 1.98 24 3.96 24 6 C22.02 6 20.04 6 18 6 C18 9.96 18 13.92 18 18 C12.06 18 6.12 18 0 18 C0 12.06 0 6.12 0 0 Z " fill="#C2E8FF" transform="translate(31,13)"/>
<path d="M0 0 C5.94 0 11.88 0 18 0 C18 1.98 18 3.96 18 6 C19.98 6 21.96 6 24 6 C24 7.98 24 9.96 24 12 C16.08 12 8.16 12 0 12 C0 13.98 0 15.96 0 18 C-3.96 18 -7.92 18 -12 18 C-12 16.02 -12 14.04 -12 12 C-10.02 12 -8.04 12 -6 12 C-6 10.02 -6 8.04 -6 6 C-4.02 6 -2.04 6 0 6 C0 4.02 0 2.04 0 0 Z " fill="#FFFFFF" transform="translate(31,1)"/>
<path d="M0 0 C1.98 0 3.96 0 6 0 C6 5.94 6 11.88 6 18 C13.92 18 21.84 18 30 18 C30 19.98 30 21.96 30 24 C20.1 24 10.2 24 0 24 C0 22.02 0 20.04 0 18 C-1.98 18 -3.96 18 -6 18 C-6 16.02 -6 14.04 -6 12 C-4.02 12 -2.04 12 0 12 C0 8.04 0 4.08 0 0 Z " fill="#4E7AB5" transform="translate(25,55)"/>
<path d="M0 0 C5.94 0 11.88 0 18 0 C18 5.94 18 11.88 18 18 C12.06 18 6.12 18 0 18 C0 12.06 0 6.12 0 0 Z " fill="#97C9FF" transform="translate(31,55)"/>
<path d="M0 0 C3.96 0 7.92 0 12 0 C12 3.96 12 7.92 12 12 C13.98 12 15.96 12 18 12 C18 13.98 18 15.96 18 18 C16.02 18 14.04 18 12 18 C12 19.98 12 21.96 12 24 C8.04 24 4.08 24 0 24 C0 16.08 0 8.16 0 0 Z " fill="#FFFFFF" transform="translate(7,31)"/>
<path d="M0 0 C1.98 0 3.96 0 6 0 C6 5.94 6 11.88 6 18 C2.04 18 -1.92 18 -6 18 C-6 16.02 -6 14.04 -6 12 C-4.02 12 -2.04 12 0 12 C0 8.04 0 4.08 0 0 Z " fill="#589CDB" transform="translate(25,55)"/>
<path d="M0 0 C1.98 0 3.96 0 6 0 C6 7.92 6 15.84 6 24 C4.02 24 2.04 24 0 24 C0 16.08 0 8.16 0 0 Z " fill="#4E7AB5" transform="translate(67,31)"/>
<path d="M0 0 C1.98 0 3.96 0 6 0 C6 7.92 6 15.84 6 24 C4.02 24 2.04 24 0 24 C0 16.08 0 8.16 0 0 Z " fill="#4E7AB5" transform="translate(7,31)"/>
<path d="M0 0 C1.98 0 3.96 0 6 0 C6 3.96 6 7.92 6 12 C0.06 12 -5.88 12 -12 12 C-12 10.02 -12 8.04 -12 6 C-8.04 6 -4.08 6 0 6 C0 4.02 0 2.04 0 0 Z " fill="#E1F7FF" transform="translate(43,19)"/>
<path d="M0 0 C3.96 0 7.92 0 12 0 C12 3.96 12 7.92 12 12 C10.02 12 8.04 12 6 12 C6 10.02 6 8.04 6 6 C4.02 6 2.04 6 0 6 C0 4.02 0 2.04 0 0 Z " fill="#97C9FF" transform="translate(49,49)"/>
<path d="M0 0 C5.94 0 11.88 0 18 0 C18 1.98 18 3.96 18 6 C12.06 6 6.12 6 0 6 C0 4.02 0 2.04 0 0 Z " fill="#589CDB" transform="translate(31,49)"/>
<path d="M0 0 C1.98 0 3.96 0 6 0 C6 5.94 6 11.88 6 18 C4.02 18 2.04 18 0 18 C0 12.06 0 6.12 0 0 Z " fill="#589CDB" transform="translate(49,31)"/>
<path d="M0 0 C5.94 0 11.88 0 18 0 C18 1.98 18 3.96 18 6 C12.06 6 6.12 6 0 6 C0 4.02 0 2.04 0 0 Z " fill="#4E7AB5" transform="translate(31,1)"/>
<path d="M0 0 C1.98 0 3.96 0 6 0 C6 3.96 6 7.92 6 12 C4.02 12 2.04 12 0 12 C0 8.04 0 4.08 0 0 Z " fill="#4E7AB5" transform="translate(61,55)"/>
<path d="M0 0 C1.98 0 3.96 0 6 0 C6 3.96 6 7.92 6 12 C4.02 12 2.04 12 0 12 C0 8.04 0 4.08 0 0 Z " fill="#7496C4" transform="translate(25,55)"/>
<path d="M0 0 C1.98 0 3.96 0 6 0 C6 3.96 6 7.92 6 12 C4.02 12 2.04 12 0 12 C0 8.04 0 4.08 0 0 Z " fill="#4E7AB5" transform="translate(13,55)"/>
<path d="M0 0 C1.98 0 3.96 0 6 0 C6 3.96 6 7.92 6 12 C4.02 12 2.04 12 0 12 C0 8.04 0 4.08 0 0 Z " fill="#C2E8FF" transform="translate(19,31)"/>
<path d="M0 0 C1.98 0 3.96 0 6 0 C6 3.96 6 7.92 6 12 C4.02 12 2.04 12 0 12 C0 8.04 0 4.08 0 0 Z " fill="#4E7AB5" transform="translate(61,19)"/>
<path d="M0 0 C1.98 0 3.96 0 6 0 C6 3.96 6 7.92 6 12 C4.02 12 2.04 12 0 12 C0 8.04 0 4.08 0 0 Z " fill="#4E7AB5" transform="translate(13,19)"/>
<path d="M0 0 C3.96 0 7.92 0 12 0 C12 1.98 12 3.96 12 6 C8.04 6 4.08 6 0 6 C0 4.02 0 2.04 0 0 Z " fill="#FFFFFF" transform="translate(19,13)"/>
<path d="M0 0 C1.98 0 3.96 0 6 0 C6 1.98 6 3.96 6 6 C4.02 6 2.04 6 0 6 C0 4.02 0 2.04 0 0 Z " fill="#4E7AB5" transform="translate(55,67)"/>
<path d="M0 0 C1.98 0 3.96 0 6 0 C6 1.98 6 3.96 6 6 C4.02 6 2.04 6 0 6 C0 4.02 0 2.04 0 0 Z " fill="#589CDB" transform="translate(49,67)"/>
<path d="M0 0 C1.98 0 3.96 0 6 0 C6 1.98 6 3.96 6 6 C4.02 6 2.04 6 0 6 C0 4.02 0 2.04 0 0 Z " fill="#4E7AB5" transform="translate(19,67)"/>
<path d="M0 0 C1.98 0 3.96 0 6 0 C6 1.98 6 3.96 6 6 C4.02 6 2.04 6 0 6 C0 4.02 0 2.04 0 0 Z " fill="#589CDB" transform="translate(55,61)"/>
<path d="M0 0 C1.98 0 3.96 0 6 0 C6 1.98 6 3.96 6 6 C4.02 6 2.04 6 0 6 C0 4.02 0 2.04 0 0 Z " fill="#589CDB" transform="translate(61,49)"/>
<path d="M0 0 C1.98 0 3.96 0 6 0 C6 1.98 6 3.96 6 6 C4.02 6 2.04 6 0 6 C0 4.02 0 2.04 0 0 Z " fill="#589CDB" transform="translate(25,43)"/>
<path d="M0 0 C1.98 0 3.96 0 6 0 C6 1.98 6 3.96 6 6 C4.02 6 2.04 6 0 6 C0 4.02 0 2.04 0 0 Z " fill="#E1F7FF" transform="translate(19,43)"/>
<path d="M0 0 C1.98 0 3.96 0 6 0 C6 1.98 6 3.96 6 6 C4.02 6 2.04 6 0 6 C0 4.02 0 2.04 0 0 Z " fill="#FFFFFF" transform="translate(25,31)"/>
<path d="M0 0 C1.98 0 3.96 0 6 0 C6 1.98 6 3.96 6 6 C4.02 6 2.04 6 0 6 C0 4.02 0 2.04 0 0 Z " fill="#FFFFFF" transform="translate(31,25)"/>
<path d="M0 0 C1.98 0 3.96 0 6 0 C6 1.98 6 3.96 6 6 C4.02 6 2.04 6 0 6 C0 4.02 0 2.04 0 0 Z " fill="#C2E8FF" transform="translate(25,25)"/>
<path d="M0 0 C1.98 0 3.96 0 6 0 C6 1.98 6 3.96 6 6 C4.02 6 2.04 6 0 6 C0 4.02 0 2.04 0 0 Z " fill="#FFFFFF" transform="translate(43,19)"/>
<path d="M0 0 C1.98 0 3.96 0 6 0 C6 1.98 6 3.96 6 6 C4.02 6 2.04 6 0 6 C0 4.02 0 2.04 0 0 Z " fill="#E1F7FF" transform="translate(25,19)"/>
<path d="M0 0 C1.98 0 3.96 0 6 0 C6 1.98 6 3.96 6 6 C4.02 6 2.04 6 0 6 C0 4.02 0 2.04 0 0 Z " fill="#4E7AB5" transform="translate(55,13)"/>
<path d="M0 0 C1.98 0 3.96 0 6 0 C6 1.98 6 3.96 6 6 C4.02 6 2.04 6 0 6 C0 4.02 0 2.04 0 0 Z " fill="#E1F7FF" transform="translate(49,13)"/>
<path d="M0 0 C1.98 0 3.96 0 6 0 C6 1.98 6 3.96 6 6 C4.02 6 2.04 6 0 6 C0 4.02 0 2.04 0 0 Z " fill="#4E7AB5" transform="translate(19,13)"/>
<path d="M0 0 C1.98 0 3.96 0 6 0 C6 1.98 6 3.96 6 6 C4.02 6 2.04 6 0 6 C0 4.02 0 2.04 0 0 Z " fill="#4E7AB5" transform="translate(49,7)"/>
<path d="M0 0 C1.98 0 3.96 0 6 0 C6 1.98 6 3.96 6 6 C4.02 6 2.04 6 0 6 C0 4.02 0 2.04 0 0 Z " fill="#4E7AB5" transform="translate(25,7)"/>
</svg>
