<?xml version="1.0" encoding="UTF-8"?>
<svg version="1.1" xmlns="http://www.w3.org/2000/svg" width="100" height="100">
<path d="M0 0 C0.85722656 0.52464844 1.71445313 1.04929687 2.59765625 1.58984375 C5.11149026 3.24478107 5.11149026 3.24478107 8.875 3.75 C13.96132878 4.94225854 17.06636354 7.74073637 20 12 C20.99371363 14.48428408 21.68279596 16.91833538 22.3203125 19.515625 C22.98959352 21.96196253 23.87610139 23.95326028 25.0625 26.1875 C29.46010287 34.69627184 30.51226196 44.16374731 28.4296875 53.578125 C27.20911712 57.04711451 25.81077874 59.64257267 23 62 C19.37056831 62.55230482 17.63290267 62.41556249 14.54296875 60.38671875 C11.5994002 57.62401462 10.04099038 54.95276138 8.1875 51.375 C7.28064453 49.65410156 7.28064453 49.65410156 6.35546875 47.8984375 C5 45 5 45 5 43 C0.25972172 46.93997156 -4.02868016 50.99510688 -8.015625 55.6953125 C-10.93146023 59.08181405 -13.97574706 62.34904206 -17.01171875 65.62744141 C-19.54194746 68.37056678 -21.97268112 71.15619865 -24.3125 74.0625 C-28.20438193 78.31641746 -31.60407703 80.106619 -37.3125 80.5625 C-42.96661697 80.35238079 -46.88519723 77.7197817 -51 74 C-54.64159938 69.88851683 -55.44339298 65.64917573 -55.43359375 60.30859375 C-54.13823204 53.41166791 -49.80461971 49.53215309 -44.8125 45.0625 C-44.13485596 44.4435083 -43.45721191 43.8245166 -42.7590332 43.18676758 C-38.85268225 39.62952475 -34.91306869 36.10913641 -30.9140625 32.65625 C-28.4453696 30.52007492 -26.00098497 28.35809507 -23.5625 26.1875 C-22.71816406 25.43855469 -21.87382813 24.68960938 -21.00390625 23.91796875 C-18.93751766 22.15581429 -18.93751766 22.15581429 -18 20 C-19.06347656 19.59394531 -19.06347656 19.59394531 -20.1484375 19.1796875 C-23.07179563 17.97029825 -25.83195491 16.61000745 -28.625 15.125 C-29.56601562 14.63257812 -30.50703125 14.14015625 -31.4765625 13.6328125 C-34.0556149 11.96401389 -35.42872995 10.61878341 -37 8 C-37.5 5 -37.5 5 -37 2 C-27.57332957 -7.98118045 -11.24097988 -5.00902084 0 0 Z " fill="#D17D56" transform="translate(64,13)"/>
<path d="M0 0 C0.85722656 0.52464844 1.71445313 1.04929687 2.59765625 1.58984375 C5.11149026 3.24478107 5.11149026 3.24478107 8.875 3.75 C13.96132878 4.94225854 17.06636354 7.74073637 20 12 C20.99371363 14.48428408 21.68279596 16.91833538 22.3203125 19.515625 C22.98959352 21.96196253 23.87610139 23.95326028 25.0625 26.1875 C29.46010287 34.69627184 30.51226196 44.16374731 28.4296875 53.578125 C27.20911712 57.04711451 25.81077874 59.64257267 23 62 C19.37056831 62.55230482 17.63290267 62.41556249 14.54296875 60.38671875 C11.5994002 57.62401462 10.04099038 54.95276138 8.1875 51.375 C7.28064453 49.65410156 7.28064453 49.65410156 6.35546875 47.8984375 C5 45 5 45 5 43 C0.25972172 46.93997156 -4.02868016 50.99510688 -8.015625 55.6953125 C-10.93146023 59.08181405 -13.97574706 62.34904206 -17.01171875 65.62744141 C-19.54194746 68.37056678 -21.97268112 71.15619865 -24.3125 74.0625 C-28.20438193 78.31641746 -31.60407703 80.106619 -37.3125 80.5625 C-42.96661697 80.35238079 -46.88519723 77.7197817 -51 74 C-54.64159938 69.88851683 -55.44339298 65.64917573 -55.43359375 60.30859375 C-54.13823204 53.41166791 -49.80461971 49.53215309 -44.8125 45.0625 C-44.13485596 44.4435083 -43.45721191 43.8245166 -42.7590332 43.18676758 C-38.85268225 39.62952475 -34.91306869 36.10913641 -30.9140625 32.65625 C-28.4453696 30.52007492 -26.00098497 28.35809507 -23.5625 26.1875 C-22.71816406 25.43855469 -21.87382813 24.68960938 -21.00390625 23.91796875 C-18.93751766 22.15581429 -18.93751766 22.15581429 -18 20 C-19.06347656 19.59394531 -19.06347656 19.59394531 -20.1484375 19.1796875 C-23.07179563 17.97029825 -25.83195491 16.61000745 -28.625 15.125 C-29.56601562 14.63257812 -30.50703125 14.14015625 -31.4765625 13.6328125 C-34.0556149 11.96401389 -35.42872995 10.61878341 -37 8 C-37.5 5 -37.5 5 -37 2 C-27.57332957 -7.98118045 -11.24097988 -5.00902084 0 0 Z M-31 4 C-31 4.99 -31 5.98 -31 7 C-30.0821875 7.43570312 -29.164375 7.87140625 -28.21875 8.3203125 C-21.30692026 11.65572693 -14.89520861 15.00188835 -9 20 C-10.15039081 21.15039081 -11.30111734 22.30044707 -12.453125 23.44921875 C-13.51040298 24.50916662 -14.56225995 25.57454233 -15.609375 26.64453125 C-19.17160091 30.26394886 -22.84928471 33.6657016 -26.6953125 36.98046875 C-30.0592755 39.9282126 -33.33637715 42.96950896 -36.62304688 46.00268555 C-39.42920757 48.58473065 -42.26699149 51.11071508 -45.1875 53.5625 C-48.33795887 56.24213073 -48.33795887 56.24213073 -49.2734375 59.98828125 C-49.45781799 64.20775776 -49.37243334 66.41131504 -47.0625 70.0625 C-43.52240979 72.30214891 -41.39695291 72.79604678 -37.265625 72.54296875 C-31.04211821 71.05147316 -26.98477027 65.00236505 -23.015625 60.3359375 C-20.57000908 57.50167719 -18.03849136 54.75067659 -15.5 52 C-9.49354379 45.4738131 -3.64436307 38.8416522 2 32 C5.41644276 35.1330159 7.72102609 38.48419691 10.125 42.4375 C10.80820313 43.54996094 11.49140625 44.66242187 12.1953125 45.80859375 C13.72237816 48.50905402 14.94495472 51.09046792 16 54 C17.97536745 53.65213292 17.97536745 53.65213292 20 53 C22.9634913 47.07301739 21.68679056 35.988319 19.6875 29.8125 C18.74831982 27.45787292 17.7180267 25.54450468 16.375 23.375 C15 21 15 21 14.625 17.5 C13.83329091 13.06642907 12.59649806 11.65828117 9 9 C6.67145135 8.63473747 4.33701038 8.30649316 2 8 C-0.62835509 6.83184218 -3.13948352 5.52601208 -5.66796875 4.15625 C-10.39448816 1.81278309 -14.85070947 1.81719108 -20.0625 1.8125 C-21.14241211 1.79413086 -21.14241211 1.79413086 -22.24414062 1.77539062 C-26.0426247 1.76480989 -27.76366518 1.84244345 -31 4 Z " fill="#E4E4E5" transform="translate(64,13)"/>
<path d="M0 0 C3.88427072 1.40062845 7.16022723 2.88155774 10.6015625 5.17578125 C11.7153125 5.27890625 12.8290625 5.38203125 13.9765625 5.48828125 C18.47197471 6.34085943 19.90004805 7.52079111 22.6015625 11.17578125 C22.95996472 13.50539568 23.29004962 15.83943468 23.6015625 18.17578125 C24.76522659 20.52735243 26.06163578 22.73648066 27.4453125 24.96484375 C29.98038954 29.81232215 29.7841811 34.94099983 29.7890625 40.30078125 C29.80130859 41.01621094 29.81355469 41.73164062 29.82617188 42.46875 C29.83678468 46.25398334 29.75244909 47.94945137 27.6015625 51.17578125 C26.6115625 51.17578125 25.6215625 51.17578125 24.6015625 51.17578125 C24.16585937 50.25796875 23.73015625 49.34015625 23.28125 48.39453125 C19.94583557 41.48270151 16.59967415 35.07098986 11.6015625 29.17578125 C10.45117169 30.32617206 9.30111543 31.47689859 8.15234375 32.62890625 C7.09239588 33.68618423 6.02702017 34.7380412 4.95703125 35.78515625 C1.33761364 39.34738216 -2.0641391 43.02506596 -5.37890625 46.87109375 C-8.3266501 50.23505675 -11.36794646 53.5121584 -14.40112305 56.79882812 C-16.98316815 59.60498882 -19.50915258 62.44277274 -21.9609375 65.36328125 C-25.11174605 68.99882958 -25.11174605 68.99882958 -28.38671875 69.44921875 C-32.60619526 69.63359924 -34.80975254 69.54821459 -38.4609375 67.23828125 C-40.70058641 63.69819104 -41.19448428 61.57273416 -40.94140625 57.44140625 C-39.44991066 51.21789946 -33.40080255 47.16055152 -28.734375 43.19140625 C-25.90011469 40.74579033 -23.14911409 38.21427261 -20.3984375 35.67578125 C-13.8722506 29.66932504 -7.2400897 23.82014432 -0.3984375 18.17578125 C-3.5314534 14.75933849 -6.88263441 12.45475516 -10.8359375 10.05078125 C-11.94839844 9.36757813 -13.06085937 8.684375 -14.20703125 7.98046875 C-16.90749152 6.45340309 -19.48890542 5.23082653 -22.3984375 4.17578125 C-22.0234375 2.23828125 -22.0234375 2.23828125 -21.3984375 0.17578125 C-15.72142246 -2.66272627 -6.02645188 -1.46158775 0 0 Z M-15.3984375 1.17578125 C-15.3984375 2.16578125 -15.3984375 3.15578125 -15.3984375 4.17578125 C-12.94437928 5.90106272 -12.94437928 5.90106272 -9.8359375 7.48828125 C-4.77183443 10.3050013 -0.62856493 13.2340716 3.6015625 17.17578125 C-0.01690172 21.60839992 -3.70842537 25.45669047 -8.0625 29.16015625 C-10.89676031 31.60577217 -13.64776091 34.13728989 -16.3984375 36.67578125 C-22.09589631 41.9195074 -27.83452167 47.09350948 -33.8359375 51.98828125 C-36.43075722 53.91549518 -36.43075722 53.91549518 -37.3984375 56.17578125 C-37.80724316 60.8185984 -37.80724316 60.8185984 -36.3359375 65.11328125 C-33.18327133 66.8421627 -30.92070349 66.66161104 -27.3984375 66.17578125 C-24.79389131 64.15824909 -24.79389131 64.15824909 -22.3984375 61.17578125 C-21.11442191 59.89721795 -19.82205893 58.6270069 -18.5234375 57.36328125 C-15.32938693 54.16923068 -12.32699296 50.86893519 -9.3828125 47.4453125 C-6.91535206 44.62327605 -4.37724451 41.86856614 -1.8359375 39.11328125 C2.06905881 34.87501256 5.89230177 30.586794 9.6015625 26.17578125 C11.3203125 26.28515625 11.3203125 26.28515625 13.6015625 27.17578125 C15.25514069 29.23693153 16.68357837 31.21411318 18.1015625 33.42578125 C20.77607548 37.48775488 23.49793438 41.4232127 26.6015625 45.17578125 C29.17675633 40.02539358 27.75635934 33.89372164 26.0390625 28.67578125 C21.74349748 17.88411615 13.13548603 8.76010359 2.53125 3.953125 C-3.60509389 1.48119699 -8.87343403 0.90945458 -15.3984375 1.17578125 Z " fill="#4C4374" transform="translate(55.3984375,15.82421875)"/>
<path d="M0 0 C11.48212404 0.18254569 20.21190158 5.39618332 28.15625 13.26171875 C32.13479062 17.55213649 34.93834238 21.92130308 37.1875 27.3125 C37.6 28.281875 38.0125 29.25125 38.4375 30.25 C39.41671534 34.24846264 39.74445003 38.21727918 39.1875 42.3125 C38.5275 42.9725 37.8675 43.6325 37.1875 44.3125 C36.58421875 43.35988281 35.9809375 42.40726563 35.359375 41.42578125 C34.55223427 40.158758 33.74493412 38.8918363 32.9375 37.625 C32.54175781 36.99916016 32.14601562 36.37332031 31.73828125 35.72851562 C28.41321782 30.52288354 25.04821158 25.83708758 20.25 21.875 C17.76607011 19.77181849 15.96228725 18.01007145 14 15.375 C10.71767935 11.15000594 5.70072651 8.78527556 1.1484375 6.14453125 C-1.24312081 4.66479398 -2.98287791 3.40813098 -4.8125 1.3125 C-3.8125 0.3125 -3.8125 0.3125 0 0 Z " fill="#979DDF" transform="translate(43.8125,16.6875)"/>
<path d="M0 0 C0.99 0.33 1.98 0.66 3 1 C1.67143806 3.92643237 0.20435823 6.0700763 -2.01171875 8.390625 C-2.60130371 9.01372559 -3.19088867 9.63682617 -3.79833984 10.27880859 C-4.4217627 10.92930176 -5.04518555 11.57979492 -5.6875 12.25 C-6.96572453 13.60072954 -8.24307889 14.95228311 -9.51953125 16.3046875 C-10.4314624 17.26906738 -10.4314624 17.26906738 -11.36181641 18.25292969 C-13.24194627 20.25802795 -15.0727481 22.29967963 -16.875 24.375 C-17.38675781 24.96410156 -17.89851563 25.55320312 -18.42578125 26.16015625 C-19.61999895 27.55587966 -20.80291594 28.96128201 -21.98046875 30.37109375 C-29.74666188 39.47779301 -29.74666188 39.47779301 -36.1953125 40.26953125 C-40.97785461 40.48261481 -44.0947356 40.02343051 -48 37 C-47.01 36.505 -47.01 36.505 -46 36 C-45.34 36.33 -44.68 36.66 -44 37 C-38.70221576 37.40752186 -35.45952835 36.91234505 -31 34 C-26.27627916 29.78930621 -22.10771451 25.06523803 -17.98828125 20.2734375 C-15.05474956 16.91918319 -12.02577093 13.6539663 -8.99487305 10.38769531 C-5.87806543 7.0126137 -2.91595215 3.54756634 0 0 Z " fill="#070707" transform="translate(65,53)"/>
<path d="M0 0 C6.42412194 6.42412194 8.23929596 15.46295408 8.4375 24.25 C8.24842966 30.36102343 7.66113639 35.84035872 3.58203125 40.68359375 C2 42 2 42 -1 42.375 C-4 42 -4 42 -5.875 40.5 C-6.24625 40.005 -6.6175 39.51 -7 39 C-5.6078125 39.0928125 -5.6078125 39.0928125 -4.1875 39.1875 C-1.07091121 39.31577636 -1.07091121 39.31577636 0.59375 37.703125 C5.07055854 32.28121244 5.45947271 25.92925585 5.3046875 19.1875 C4.80571439 13.96747364 3.49379191 9.01487285 2 4 C1.34 4 0.68 4 0 4 C0 2.68 0 1.36 0 0 Z " fill="#080808" transform="translate(85,33)"/>
<path d="M0 0 C2.86724686 0.57344937 3.8614515 0.8614515 6 3 C5.625 5.125 5.625 5.125 5 7 C3.02 5.35 1.04 3.7 -1 2 C-0.67 1.34 -0.34 0.68 0 0 Z " fill="#C5795B" transform="translate(69,25)"/>
</svg>
